<svg width="124" height="100" viewBox="0 0 124 100" fill="none" xmlns="http://www.w3.org/2000/svg">
<path d="M121.094 26.461C119.707 22.7043 117.538 19.2848 114.731 16.4284L105.903 7.58299C104.927 6.60663 103.873 5.71186 102.751 4.90765C98.2346 1.61358 92.7637 -0.1102 87.175 3.24481e-05C83.5406 -0.0370082 79.9432 0.73103 76.6408 2.24901L76.4819 2.32425C76.0973 2.51654 75.7128 2.70882 75.3365 2.90947C74.3215 2.38769 73.2711 1.93791 72.193 1.56344C69.2446 0.500417 66.1305 -0.0289841 62.9964 3.24481e-05C60.4303 -0.00276256 57.8836 0.444313 55.472 1.32098C53.0578 0.462675 50.5094 0.0436003 47.9475 0.0836171C43.366 0.0836171 39.6706 1.05344 36.6525 3.04324C33.1192 5.3008 30.6034 8.84507 29.638 12.9254L29.521 13.4855C29.201 15.2425 29.0443 17.0253 29.0528 18.8112V24.4712C25.5353 24.7868 22.106 25.7476 18.9366 27.3054C15.2492 29.1121 11.9229 31.5771 9.12134 34.5791C6.29446 37.5916 4.02932 41.0856 2.43293 44.8959L2.38276 45.0297C0.755652 49.0098 -0.0738045 53.2707 -0.058508 57.5705C-0.0708355 61.9062 0.73177 66.2057 2.30752 70.245L2.43293 70.5543C4.01617 74.3254 6.23304 77.7977 8.98756 80.821C9.37215 81.239 9.75672 81.6571 10.1162 81.9999L18.7526 90.6363L19.0871 90.9623C21.6103 93.4671 24.528 95.5402 27.7235 97.0989L28.0579 97.2578C31.9631 99.0396 36.2058 99.9606 40.4983 99.9582C43.3966 99.9719 46.2803 99.5463 49.0511 98.6958C51.5621 99.5996 54.2166 100.039 56.8849 99.9917C61.5835 99.9917 65.3541 98.9382 68.3973 96.7645C71.8193 94.4013 74.1949 90.8065 75.0272 86.7319C75.4158 84.89 75.612 83.0128 75.6124 81.1304V75.3449C77.1267 75.6539 78.6656 75.8273 80.2107 75.8632C84.7755 75.9887 88.496 75.1192 91.5559 73.2046L91.7231 73.0959C92.0826 72.8702 92.4254 72.6277 92.7598 72.3686L92.9772 72.5358L93.2698 72.7364C96.3298 74.8433 100.1 75.8632 104.807 75.8632C109.305 75.8632 112.934 74.9687 115.885 73.121L116.336 72.8284C119.844 70.4582 122.28 66.8037 123.117 62.6537C123.505 60.8118 123.702 58.9345 123.702 57.0521V42.0283C123.784 36.7239 122.9 31.4489 121.094 26.461Z" fill="#1E0333"/>
<path d="M118.753 27.3556C117.488 23.937 115.514 20.8254 112.959 18.2259L104.088 9.3554C103.203 8.47617 102.25 7.66825 101.237 6.9392C97.1469 3.9598 92.1926 2.40334 87.1332 2.50814C83.8883 2.48314 80.6775 3.17096 77.7276 4.52302L77.5938 4.58153C76.833 4.95775 76.0889 5.35906 75.3783 5.78544C74.1105 5.03119 72.7686 4.40925 71.3736 3.92941C68.7077 2.96341 65.8904 2.48208 63.0549 2.50814C60.4574 2.49742 57.8844 3.00918 55.4887 4.01302C53.1189 3.02918 50.5715 2.5453 48.006 2.59172C43.9261 2.59172 40.6822 3.42779 38.0821 5.14169C35.0886 7.04922 32.9563 10.0482 32.1378 13.5022L32.0458 13.9453C31.7526 15.5504 31.6099 17.1795 31.6194 18.8111V26.8372C27.6275 26.8323 23.6872 27.7388 20.0986 29.4875C16.6845 31.166 13.6027 33.449 11.0024 36.226C8.38117 39.0237 6.28291 42.2688 4.80729 45.8072L4.75713 45.9075C3.26234 49.5845 2.49845 53.5176 2.50815 57.4868C2.5016 61.5246 3.259 65.5272 4.7404 69.2835L4.84072 69.526C6.31161 73.036 8.37305 76.2681 10.9355 79.082C11.2867 79.4666 11.6462 79.8428 11.9806 80.1772L20.6254 88.8471L20.8845 89.1062C23.2207 91.4246 25.9206 93.3451 28.8772 94.7914L29.1363 94.9168C32.7169 96.5605 36.6087 97.4158 40.5484 97.425C43.4616 97.4509 46.3584 96.9874 49.1179 96.0538C51.5647 97.0773 54.2 97.573 56.8514 97.5085C61.0317 97.5085 64.309 96.6056 66.884 94.7496C69.7951 92.7448 71.8128 89.6869 72.5106 86.2219C72.8661 84.5452 73.0454 82.8359 73.0457 81.122V71.9254C75.331 72.8365 77.7672 73.3102 80.2274 73.3216C84.2906 73.4387 87.5345 72.6862 90.168 71.0475L90.3018 70.9639C91.1677 70.4034 91.9745 69.7563 92.7096 69.0327C93.2281 69.5554 93.7873 70.0363 94.3817 70.4707L94.6158 70.6379C97.241 72.4438 100.552 73.3216 104.732 73.3216C108.912 73.3216 111.897 72.5775 114.48 70.9639L114.84 70.7215C117.838 68.7264 119.921 65.6233 120.634 62.0935C120.989 60.4168 121.168 58.7075 121.169 56.9935V42.0282C121.259 37.0314 120.44 32.0597 118.753 27.3556V27.3556Z" fill="#F8935A"/>
<path d="M111.755 30.0393C110.87 27.6119 109.48 25.4004 107.675 23.5515L98.8045 14.6811C98.2088 14.0672 97.5597 13.5077 96.8648 13.009C94.0527 10.9632 90.6429 9.90494 87.1666 9.99917C85.0158 9.97568 82.8863 10.4267 80.9297 11.3201V11.3201C79.2551 12.1201 77.7128 13.1718 76.3565 14.4386C76.0304 14.7479 75.7127 15.0656 75.4118 15.3833L74.7262 14.6978C74.4001 14.3717 74.0573 14.0624 73.7062 13.7698C72.311 12.5188 70.6752 11.5658 68.8989 10.969C67.0485 10.2951 65.0909 9.96363 63.1218 9.9908C61.4277 9.97884 59.7509 10.3325 58.2058 11.0275C57.1035 11.4934 56.0574 12.0824 55.0874 12.7832L54.87 12.5659C54.6696 12.3348 54.4515 12.1195 54.2179 11.9221C52.7799 10.6764 50.7733 10.0744 48.0729 10.0744C45.4979 10.0744 43.6 10.5092 42.2707 11.4037C41.5856 11.82 40.9902 12.3685 40.5194 13.0173C40.0486 13.6661 39.7117 14.4023 39.5285 15.1827V15.2914C39.326 16.4395 39.2281 17.6035 39.2358 18.7693V35.9C36.901 34.8177 34.3515 34.2775 31.7783 34.3199C28.9056 34.3169 26.0707 34.9748 23.493 36.2428C20.8965 37.5212 18.5538 39.2606 16.5789 41.3761C14.5647 43.5313 12.951 46.0284 11.8134 48.7501C10.6926 51.5228 10.1246 54.4879 10.1413 57.4785C10.123 60.5832 10.6903 63.6635 11.8134 66.558C12.9476 69.2818 14.5458 71.7881 16.5371 73.9654C16.8046 74.258 17.0722 74.5423 17.3731 74.8014L26.2436 83.6803C28.0254 85.4527 30.0875 86.9188 32.3468 88.0194C34.9567 89.2063 37.79 89.8219 40.6571 89.8253C43.591 89.8917 46.4928 89.2037 49.0845 87.8271C49.3521 87.6766 49.6308 87.5178 49.9206 87.3505L50.3135 87.7435C50.6347 88.058 50.9877 88.3382 51.3669 88.5795C53.0745 89.5568 55.0296 90.0158 56.9936 89.9005C59.5686 89.9005 61.4497 89.4407 62.6787 88.5461C63.3559 88.1009 63.9371 87.5246 64.3879 86.8511C64.8388 86.1777 65.1503 85.4208 65.3039 84.625C65.5593 83.4466 65.6882 82.2442 65.6885 81.0384V57.7962C65.6885 57.5453 65.6885 57.2862 65.6885 57.0186V55.2044L74.1075 63.6318C74.357 63.8749 74.6223 64.1011 74.9018 64.309C76.1726 65.237 78.0286 65.7303 80.5785 65.7972C83.1285 65.8641 84.9929 65.4962 86.364 64.6434C87.7627 63.7852 88.7934 62.4387 89.2567 60.8645C89.5985 59.6112 89.77 58.3177 89.7668 57.0186V55.2964L98.1273 63.6569C98.4041 63.932 98.7033 64.1837 99.0218 64.4093C100.351 65.329 102.266 65.7721 104.874 65.7721C107.483 65.7721 109.305 65.3875 110.635 64.5598L110.727 64.5013C111.403 64.057 111.983 63.482 112.434 62.8101C112.885 62.1381 113.197 61.3828 113.352 60.5886C113.607 59.4072 113.736 58.2021 113.736 56.9936V42.0283C113.802 37.9453 113.131 33.884 111.755 30.0393V30.0393Z" fill="#1E0333"/>
<path fill-rule="evenodd" clip-rule="evenodd" d="M54.1761 48.8755C54.1761 48.6414 54.1761 48.3989 54.1761 48.1565V33.1076C54.153 31.747 54.3507 30.3918 54.7613 29.0945C55.1445 27.9512 55.8395 26.9378 56.7679 26.1684C57.7466 25.4132 58.9606 25.0283 60.1956 25.0815C61.3017 25.0245 62.3938 25.3492 63.289 26.0011C64.1392 26.7226 64.7513 27.6844 65.0448 28.7601C65.4703 30.1688 65.6679 31.6365 65.63 33.1076V48.0729C65.6304 49.0813 65.7143 50.088 65.8808 51.0826C65.9653 51.5527 66.1416 52.0014 66.3999 52.4031C66.6581 52.8048 66.9931 53.1516 67.3857 53.4236C68.2217 54.0367 69.643 54.3711 71.6495 54.4268C73.1402 54.5774 74.6437 54.3172 75.997 53.6744C76.8766 53.1463 77.5313 52.3131 77.8363 51.3335C78.1177 50.2981 78.2583 49.2294 78.2543 48.1565V33.1912C78.2077 31.6585 78.4342 30.1298 78.9232 28.6765C79.2663 27.5815 79.9745 26.6372 80.9297 26.0011C81.8951 25.3644 83.0344 25.0431 84.1903 25.0815C85.2828 25.0346 86.3543 25.3917 87.2001 26.0847C88.0796 26.7606 88.7233 27.6969 89.0394 28.7601C89.465 30.1688 89.6625 31.6365 89.6246 33.1076V48.0729C89.623 49.1092 89.7069 50.1438 89.8754 51.1663C90.1025 52.1138 90.6673 52.9461 91.464 53.5072C92.3585 54.1175 93.83 54.4268 95.895 54.4268C97.4196 54.5376 98.9467 54.2494 100.326 53.5908C100.737 53.3306 101.091 52.9884 101.364 52.5857C101.637 52.1829 101.825 51.7282 101.915 51.2499C102.14 50.2342 102.252 49.1968 102.249 48.1565V33.1912C102.342 29.4089 101.747 25.6412 100.493 22.0717C99.5136 19.2614 97.7066 16.8132 95.3098 15.0489C92.9312 13.3297 90.0498 12.4476 87.1165 12.5407C85.3296 12.5163 83.5595 12.8874 81.933 13.6276C80.4897 14.3056 79.1633 15.2086 78.0035 16.303C76.9469 17.2896 75.9943 18.3822 75.161 19.5636C74.3483 18.0966 73.2711 16.7927 71.984 15.7177C70.8254 14.6644 69.4581 13.8667 67.9709 13.3768C66.3926 12.7953 64.72 12.5119 63.0382 12.5407C61.6833 12.5311 60.3424 12.8163 59.1088 13.3768C57.997 13.8428 56.9558 14.4619 56.0154 15.2161C55.2552 15.8213 54.5501 16.4928 53.9086 17.2226C53.9225 16.5978 53.8047 15.977 53.5627 15.4008C53.3206 14.8246 52.9599 14.3059 52.504 13.8784C51.562 13.0423 50.0572 12.6243 47.9893 12.6243C45.9243 12.6243 44.4528 12.9253 43.5582 13.544C43.1401 13.7861 42.776 14.1113 42.4884 14.4995C42.2009 14.8878 41.9959 15.3308 41.8861 15.8013C41.7097 16.7947 41.6258 17.8023 41.6353 18.8111V40.5484C40.739 39.7702 39.7507 39.1047 38.6924 38.567C36.5344 37.4145 34.1155 36.8385 31.6696 36.8949C29.1759 36.8886 26.7146 37.4609 24.4796 38.567C22.1536 39.7087 20.0566 41.2672 18.2928 43.1652C16.4882 45.0943 15.044 47.3313 14.0289 49.7701C13.0221 52.238 12.5108 54.8799 12.5241 57.5453C12.5114 60.3191 13.022 63.0704 14.0289 65.655C15.0594 68.1108 16.5014 70.3727 18.2928 72.3434C20.0193 74.2471 22.09 75.8072 24.396 76.9417C26.6791 77.9851 29.1594 78.5268 31.6696 78.5302C34.1699 78.5969 36.6454 78.0212 38.8596 76.8581C39.9436 76.2393 40.9534 75.4988 41.8694 74.6509V74.8516C41.9685 75.4249 42.1825 75.9723 42.4986 76.4608C42.8147 76.9494 43.2263 77.3689 43.7087 77.6942C45.0167 78.3918 46.4934 78.7103 47.9726 78.6138C49.9791 78.6138 51.4004 78.3073 52.2365 77.6942C52.6478 77.4339 53.0011 77.0918 53.2743 76.689C53.5476 76.2863 53.7351 75.8315 53.8249 75.3532C54.0503 74.3376 54.1624 73.3001 54.1594 72.2598L54.1761 48.8755ZM33.3584 66.1316C34.7716 66.1534 36.1624 65.7767 37.3715 65.0447C38.5873 64.271 39.5926 63.2082 40.2977 61.9513C41.05 60.6592 41.4533 59.1936 41.468 57.6985C41.4826 56.2034 41.1081 54.7302 40.3813 53.4236C39.6948 52.1751 38.6838 51.1352 37.4551 50.4138C36.187 49.6768 34.7413 49.3009 33.2748 49.327C31.8103 49.3168 30.3687 49.6916 29.0946 50.4138C27.8659 51.1352 26.8549 52.1751 26.1684 53.4236C25.4773 54.7366 25.1321 56.204 25.1651 57.6875C25.1445 59.165 25.512 60.6221 26.2309 61.9132C26.9498 63.2042 27.9949 64.284 29.2618 65.0447C30.5094 65.7575 31.9215 66.1321 33.3584 66.1316V66.1316Z" fill="#FFFCF3"/>
</svg>
