<svg width="231" height="231" viewBox="0 0 231 231" fill="none" xmlns="http://www.w3.org/2000/svg">
<path d="M133.76 12.354L79.1517 24.708L91.5057 79.3168L36.8969 91.6707L49.2509 146.28L103.86 133.926L116.214 188.534L170.822 176.18L158.468 121.572L213.077 109.218L200.723 54.6088L146.114 66.9628L133.76 12.354Z" fill="white" stroke="#1E0333" stroke-width="10" stroke-linejoin="round"/>
<path d="M151.832 206.275L145.135 176.672L164.125 146.577L170.822 176.18L151.832 206.275Z" fill="white" stroke="#1E0333" stroke-width="10" stroke-linejoin="round"/>
<path d="M46.599 115.275L17.9063 121.766L36.8969 91.6707L65.5897 85.1797L46.599 115.275Z" fill="white" stroke="#1E0333" stroke-width="10" stroke-linejoin="round"/>
<path d="M139.478 151.667L194.087 139.313L213.077 109.218L158.468 121.572L139.478 151.667Z" fill="white" stroke="#1E0333" stroke-width="10" stroke-linejoin="round"/>
<path d="M194.087 139.313L181.733 84.704L200.723 54.6088L213.077 109.218L194.087 139.313Z" fill="#F582BD" stroke="#1E0333" stroke-width="10" stroke-linejoin="round"/>
<path d="M172.247 61.051L153.256 91.1462L127.124 97.058L146.114 66.9628L172.247 61.051Z" stroke="#1E0333" stroke-width="10" stroke-linejoin="round"/>
<path d="M121.313 71.3734L114.77 42.4492L133.76 12.354L140.304 41.2781L121.313 71.3734Z" stroke="#1E0333" stroke-width="10" stroke-linejoin="round"/>
<path d="M114.77 42.4492L60.161 54.8032L79.1517 24.708L133.76 12.354L114.77 42.4492Z" fill="#F582BD" stroke="#1E0333" stroke-width="10" stroke-linejoin="round"/>
<path d="M114.77 42.4492L60.161 54.8032L72.515 109.412L17.9062 121.766L30.2602 176.375L84.869 164.021L97.223 218.63L151.832 206.276L139.478 151.667L194.087 139.313L181.733 84.704L127.124 97.058L114.77 42.4492Z" fill="#32B8D5" stroke="#1E0333" stroke-width="10" stroke-linejoin="round"/>
</svg>
