<svg width="232" height="177" viewBox="0 0 232 177" fill="none" xmlns="http://www.w3.org/2000/svg">
<path d="M87.5699 114.602L78.2217 109.919L85.6263 100.998C86.4555 100.074 87.1795 98.9909 87.8233 97.8546C89.3488 95.3184 89.3274 92.539 88.5156 90.097L82.5559 72.1711C81.945 70.3336 80.688 68.7673 78.8351 67.839L76.9491 71.6035L78.8351 67.839L57.9837 57.3927C56.131 56.4646 54.1241 56.3953 52.2863 57.0063C51.6463 57.2191 51.1689 57.5224 51.0319 57.6095L51.0259 57.6133C51.0035 57.6276 50.9813 57.6418 50.9594 57.6561C50.1998 58.0538 49.6241 58.5497 49.2239 58.9493L48.9934 59.1795L48.7947 59.4375L14.466 104.029L14.448 104.052L14.4303 104.076C13.5492 105.249 12.7847 106.477 12.2224 107.755C11.1107 110.097 11.3971 112.499 12.0193 114.371L13.5644 119.018C14.214 120.972 15.4363 122.987 17.6157 124.244L17.743 124.318L17.8744 124.383L38.7258 134.83L40.9653 130.359L38.7258 134.83C38.8902 134.912 39.0557 134.991 39.2215 135.068C40.2244 135.529 41.3341 135.923 42.5108 136.267L42.5391 136.275L42.5675 136.283L96.7615 151.445L97.0752 151.532L97.3976 151.579C97.9569 151.659 98.7149 151.712 99.5619 151.575C99.5881 151.574 99.6145 151.572 99.6411 151.57L99.6481 151.569C99.8101 151.557 100.374 151.514 101.014 151.301C101.532 151.129 102.029 150.905 102.496 150.631L110.884 154.833C112.627 155.706 114.675 155.976 116.729 155.293L131.224 150.474C133.431 149.74 135.773 148.345 137.069 145.759L132.599 143.519L137.069 145.759C137.768 144.363 138.293 142.803 138.4 141.133L144.029 66.0172L155.595 71.8113L148.209 80.784C147.495 81.5752 146.782 82.5077 146.074 83.5295L146.013 83.6163L145.957 83.7055C144.276 86.3624 144.525 89.2777 145.287 91.5699L151.247 109.496C151.858 111.333 153.115 112.9 154.968 113.828L175.819 124.274C177.672 125.202 179.679 125.271 181.516 124.661C182.065 124.478 182.556 124.227 182.988 123.932C183.677 123.549 184.205 123.091 184.579 122.718L184.809 122.487L185.008 122.229L219.304 77.6798C220.246 76.5066 221.109 75.2303 221.675 73.8886C222.659 71.5829 222.431 69.2448 221.783 67.296L220.238 62.6485C219.63 60.8186 218.461 58.7748 216.266 57.5531C215.928 57.3404 215.584 57.1491 215.236 56.9763C215.234 56.9753 215.232 56.9744 215.23 56.9734L194.395 46.5349L194.387 46.531L194.379 46.5271C193.377 46.0293 192.293 45.6562 191.185 45.3696L140.422 31.1681L120.859 21.3674L120.839 21.3577L120.839 21.3574L120.682 21.2778L120.63 21.2561C118.923 20.4594 117.046 20.3619 115.27 20.9523L100.442 25.8819C98.2652 26.6056 96.0528 27.9814 94.7738 30.4315C93.9873 31.8429 93.4573 33.3857 93.2821 35.0374L93.2731 35.1221L93.267 35.207L87.5699 114.602Z" fill="#1E0333" stroke="#1E0333" stroke-width="10"/>
<path d="M94.2999 140.102C93.636 140.323 92.96 140.261 92.272 139.916C91.6822 139.621 91.2769 139.141 91.0562 138.477C90.9581 138.182 90.9215 137.825 90.9464 137.408L98.2543 35.5648C98.3534 34.6307 98.6614 33.7091 99.1784 32.7999C99.6708 31.8169 100.618 31.0925 102.019 30.6265L116.847 25.697C117.511 25.4762 118.15 25.5505 118.764 25.9197C119.428 26.1907 119.87 26.6581 120.091 27.322C120.189 27.6171 120.225 27.9736 120.201 28.3915L112.561 130.345C112.511 131.18 112.24 132.09 111.747 133.073C111.255 134.056 110.271 134.792 108.796 135.283L94.2999 140.102Z" fill="white"/>
<path d="M78.5848 136.11C78.5111 136.135 78.3513 136.147 78.1054 136.147C77.8841 136.22 77.6014 136.233 77.2573 136.183L23.0631 121.022C21.8834 120.676 20.9003 120.307 20.114 119.913C19.3031 119.445 18.7015 118.621 18.3091 117.441L16.764 112.794C16.3716 111.613 16.3723 110.63 16.7663 109.844C17.1357 108.983 17.6896 108.062 18.4279 107.079L52.7568 62.4876C53.0028 62.242 53.2364 62.0824 53.4578 62.0088C53.6545 61.8614 53.7898 61.7755 53.8636 61.751C54.5275 61.5303 55.1543 61.5676 55.7441 61.8631C56.3339 62.1586 56.7391 62.6383 56.9599 63.3022L62.9194 81.2281C63.3854 82.6297 63.2984 83.8465 62.6584 84.8785C62.0922 85.886 61.5385 86.6845 60.9972 87.2741L45.6426 105.773L69.0537 111.507C69.8402 111.655 70.7496 111.927 71.7818 112.321C72.8877 112.69 73.6859 113.613 74.1764 115.088L80.136 133.014C80.3568 133.678 80.3194 134.305 80.0239 134.895C79.7285 135.484 79.2488 135.89 78.5848 136.11Z" fill="#9C9AFF"/>
<path d="M157.207 109.357C157.797 109.653 158.424 109.69 159.088 109.47C159.235 109.421 159.371 109.335 159.494 109.212C159.715 109.138 159.949 108.979 160.195 108.733L194.523 64.1413C195.336 63.1341 195.902 62.2495 196.222 61.4877C196.591 60.6276 196.58 59.6073 196.187 58.427L194.642 53.7796C194.25 52.5993 193.66 51.8121 192.874 51.4182C192.137 50.9259 191.142 50.5195 189.888 50.1989L135.694 35.0375C135.35 34.988 135.067 35.0001 134.846 35.0737C134.674 35.0489 134.514 35.0611 134.366 35.1102C133.703 35.3309 133.223 35.7361 132.927 36.3259C132.632 36.9157 132.595 37.5425 132.815 38.2064L138.775 56.1324C139.241 57.534 140.002 58.4687 141.059 58.9367C142.189 59.38 143.148 59.6758 143.934 59.8239L167.309 65.4474L151.991 84.0571C151.45 84.6467 150.847 85.4206 150.182 86.3788C149.591 87.3125 149.541 88.5171 150.032 89.9924L155.991 107.918C156.212 108.582 156.617 109.062 157.207 109.357Z" fill="#9C9AFF"/>
</svg>
