<svg width="403" height="201" viewBox="0 0 403 201" fill="none" xmlns="http://www.w3.org/2000/svg">
<path d="M402.54 141.5C402.23 132.5 399.65 124.66 394.87 118.16C393.594 116.379 392.172 114.707 390.62 113.16L380.12 102.66L379.76 102.29C378.97 101.52 378.15 100.79 377.31 100.09C379.191 98.3066 380.889 96.3402 382.38 94.22C387.017 87.4578 389.594 79.4966 389.8 71.3C389.94 68.3 390.02 65.15 390.02 61.87C390.02 58.59 389.94 55.44 389.8 52.36C389.67 44.1906 387.138 36.2402 382.52 29.5C381.149 27.51 379.599 25.649 377.89 23.94L367.28 13.33C363.446 9.53656 358.925 6.5061 353.96 4.39994C339.092 -1.50701 322.528 -1.50701 307.66 4.39994C300.396 7.44081 294.152 12.4921 289.66 18.9599C288.754 20.2993 287.929 21.6919 287.19 23.13C286.308 20.7414 284.919 18.5717 283.12 16.7699L272.51 6.15995C270.872 4.51022 268.923 3.20203 266.775 2.31114C264.628 1.42024 262.325 0.964345 260 0.969952H240C235.309 0.980517 230.813 2.84877 227.496 6.16587C224.179 9.48298 222.311 13.9789 222.3 18.67V18.8399C221.762 18.1043 221.167 17.4122 220.52 16.7699L209.91 6.18998C208.273 4.54144 206.325 3.23392 204.18 2.34306C202.034 1.4522 199.733 0.995698 197.41 0.999981H177.41C174.743 0.990767 172.109 1.59285 169.71 2.75999C167.311 1.59285 164.677 0.990767 162.01 0.999981H110.71C107.848 0.983958 105.025 1.67071 102.49 2.99998C99.9514 1.67066 97.1256 0.983952 94.26 0.999981H74.66C70.7507 0.99028 66.95 2.28533 63.86 4.67997C60.7715 2.2826 56.9698 0.987212 53.06 0.999981H33.46C28.7673 1.00527 24.2683 2.8718 20.9501 6.19004C17.6318 9.50829 15.7653 14.0073 15.76 18.7V83.3C15.7655 85.2455 16.0863 87.1771 16.71 89.0199C12.239 89.15 7.99441 91.0166 4.87669 94.224C1.75896 97.4313 0.0133129 101.727 0.0100021 106.2V107.57L9.36 172.3V172.44C10.0081 176.377 11.8191 180.03 14.56 182.93L25.56 193.93C27.3765 195.728 29.5314 197.147 31.9002 198.107C34.2689 199.066 36.8044 199.547 39.36 199.52H53.66C58.1218 199.596 62.4672 198.095 65.93 195.28C69.4208 198.086 73.7817 199.586 78.26 199.52H92.56C95.1172 199.548 97.6546 199.068 100.025 198.109C102.396 197.149 104.552 195.729 106.37 193.93C107.883 192.438 109.152 190.717 110.13 188.83C113.756 192.041 117.901 194.611 122.39 196.43C129.667 199.247 137.418 200.635 145.22 200.52C152.994 200.648 160.718 199.259 167.96 196.43C170.765 195.308 173.446 193.897 175.96 192.22L178.08 194.34C179.719 195.985 181.667 197.29 183.812 198.179C185.958 199.068 188.258 199.524 190.58 199.52H210.18C213.535 199.53 216.822 198.575 219.65 196.77C222.746 198.636 226.295 199.615 229.91 199.6H250.41C252.511 199.607 254.596 199.227 256.56 198.48C258.549 199.226 260.656 199.605 262.78 199.6H313.18C315.261 199.602 317.326 199.237 319.28 198.52C321.234 199.238 323.299 199.603 325.38 199.6H354.68C362.334 199.71 369.937 198.352 377.08 195.6H377.18C384.524 192.67 390.838 187.636 395.33 181.13L395.39 181.04C399.77 174.59 402.18 166.72 402.56 157.76C402.7 154.76 402.78 152.1 402.78 149.76C402.78 147.42 402.69 144.54 402.54 141.5Z" fill="#1D1332"/>
<path d="M399.55 141.62C399.25 133.24 396.87 125.94 392.45 119.93C391.246 118.28 389.908 116.731 388.45 115.3L377.93 104.78L377.5 104.34L377.42 104.27C375.897 102.803 374.255 101.465 372.51 100.27C375.335 98.0664 377.815 95.4544 379.87 92.5199C384.177 86.221 386.567 78.8087 386.75 71.18C386.89 68.26 386.97 65.1799 386.97 61.8999C386.97 58.6199 386.9 55.5499 386.76 52.5199C386.643 44.9185 384.296 37.5188 380.01 31.24C378.738 29.3973 377.302 27.6736 375.72 26.0899L365.11 15.49C361.543 11.9611 357.339 9.14125 352.72 7.17997C338.611 1.60619 322.91 1.60619 308.8 7.17997C302.056 10.0035 296.257 14.6898 292.08 20.69C287.891 26.9682 285.568 34.3051 285.38 41.8499V42.12C285.31 45.06 285.28 48.12 285.28 51.3V53.5V29.3C285.282 27.3709 284.903 25.4605 284.163 23.6789C283.423 21.8974 282.338 20.2799 280.97 18.92L270.38 8.29996C269.019 6.93022 267.4 5.84397 265.617 5.10416C263.833 4.36434 261.921 3.98566 259.99 3.98996H239.99C236.094 3.99789 232.359 5.54916 229.604 8.30423C226.849 11.0593 225.298 14.7937 225.29 18.69V53.49H222.7V29.3C222.704 27.3708 222.324 25.46 221.585 23.6783C220.845 21.8966 219.759 20.2793 218.39 18.92L207.78 8.29996C206.421 6.93097 204.803 5.84513 203.022 5.10532C201.24 4.36551 199.329 3.98643 197.4 3.98996H177.4C174.68 3.98476 172.013 4.73982 169.7 6.16996C167.387 4.73982 164.72 3.98476 162 3.98996H110.7C107.764 3.98307 104.895 4.86506 102.47 6.51993C100.049 4.86356 97.183 3.98133 94.25 3.98996H74.65C72.7192 3.98566 70.8067 4.36434 69.0233 5.10416C67.2398 5.84397 65.6208 6.93022 64.26 8.29996C64.12 8.42996 63.99 8.56993 63.86 8.70993L63.44 8.28995C62.0785 6.9211 60.4594 5.83549 58.6761 5.09574C56.8928 4.35599 54.9806 3.97675 53.05 3.97995H33.45C29.5537 3.98788 25.8193 5.53915 23.0643 8.29422C20.3092 11.0493 18.7579 14.7837 18.75 18.68V83.3C18.7457 86.4237 19.7292 89.4689 21.56 92H17.2C15.3226 92.0009 13.4641 92.3744 11.7321 93.0988C10.0001 93.8232 8.42906 94.884 7.11 96.2199C5.79624 97.5311 4.75632 99.0905 4.05073 100.807C3.34514 102.524 2.98797 104.364 3 106.22V107.38L12.33 171.93V172.04C12.8785 175.394 14.4299 178.504 16.78 180.96L27.72 191.96C29.2588 193.478 31.0835 194.676 33.0883 195.485C35.0932 196.293 37.2384 196.696 39.4 196.67H53.7C55.9019 196.727 58.0909 196.317 60.123 195.468C62.1551 194.618 63.9842 193.347 65.49 191.74L65.91 191.26L66.82 192.16C68.332 193.645 70.128 194.81 72.1005 195.585C74.073 196.36 76.1815 196.729 78.3 196.67H92.6C96.4187 196.692 100.128 195.394 103.1 192.996C106.072 190.598 108.124 187.247 108.91 183.51L110.65 185.25C114.337 188.907 118.72 191.788 123.54 193.72C130.459 196.401 137.831 197.718 145.25 197.6C152.654 197.732 160.012 196.414 166.91 193.72C170.275 192.373 173.441 190.573 176.32 188.37L180.21 192.3C181.572 193.665 183.19 194.747 184.971 195.485C186.752 196.223 188.662 196.602 190.59 196.6H210.19C213.637 196.608 216.975 195.392 219.61 193.17C222.539 195.479 226.182 196.692 229.91 196.6H250.41C252.535 196.609 254.634 196.137 256.55 195.22C258.499 196.136 260.627 196.607 262.78 196.6H313.18C315.285 196.604 317.365 196.154 319.28 195.28C321.194 196.156 323.275 196.607 325.38 196.6H354.68C361.978 196.718 369.23 195.428 376.04 192.8C382.876 190.07 388.748 185.371 392.91 179.3C396.97 173.3 399.2 165.98 399.56 157.56C399.7 154.65 399.78 152 399.78 149.67C399.78 147.34 399.69 144.62 399.55 141.62ZM294.55 108.62H300.03V141.52H297.44V117.3C297.447 114.166 296.44 111.114 294.57 108.6L294.55 108.62Z" fill="#73C6AC"/>
<path d="M390.55 141.98C390.557 138.206 389.817 134.468 388.374 130.98C386.931 127.493 384.812 124.325 382.14 121.66L371.56 111.08L371.48 111.01C368.623 108.198 365.247 105.967 361.54 104.44C355.838 102.077 349.712 100.906 343.54 101H314.74C313.23 101.005 311.783 101.607 310.715 102.675C309.648 103.743 309.045 105.19 309.04 106.7V154.7L306.56 152.23C306.04 151.696 305.418 151.272 304.731 150.984C304.043 150.695 303.305 150.548 302.56 150.55H288.46V117.3C288.461 116.555 288.313 115.817 288.025 115.13C287.736 114.443 287.313 113.821 286.78 113.3L276.17 102.69C275.647 102.16 275.025 101.74 274.338 101.453C273.651 101.166 272.914 101.019 272.17 101.02H252.17C250.662 101.03 249.218 101.634 248.151 102.701C247.084 103.768 246.48 105.211 246.47 106.72V120.44L236.11 110.08C235.435 109.408 234.724 108.774 233.98 108.18C228.06 103.43 219.86 101.02 209.6 101.02H180C179.255 101.02 178.518 101.169 177.831 101.458C177.144 101.746 176.522 102.168 176 102.7C175.466 103.22 175.042 103.842 174.753 104.529C174.464 105.216 174.317 105.955 174.32 106.7V121.54C173.987 121.167 173.653 120.807 173.32 120.46L162.79 109.93L162.72 109.85C159.952 107.129 156.695 104.954 153.12 103.44C141.286 98.8531 128.164 98.8531 116.33 103.44C112.279 105.149 108.646 107.715 105.68 110.96L97.16 102.44C96.7029 101.978 96.1575 101.612 95.5563 101.365C94.955 101.117 94.3101 100.993 93.66 101H75.06C71.32 101 68.86 103 68.49 106.34L66.83 120.04L64.9 118.11C64.3225 117.563 63.6403 117.138 62.8945 116.862C62.1487 116.585 61.3546 116.462 60.56 116.5H52.91C52.7273 115.324 52.1778 114.235 51.34 113.39L40.73 102.78C40.0704 102.167 39.2937 101.693 38.4466 101.387C37.5994 101.081 36.6993 100.95 35.8 101H17.2C16.5055 100.999 15.8181 101.139 15.1789 101.411C14.5397 101.682 13.9618 102.08 13.48 102.58C13.0027 103.053 12.6257 103.617 12.3714 104.239C12.1171 104.861 11.9908 105.528 12 106.2V106.71L21.24 170.65C21.5187 172.23 22.2722 173.688 23.4 174.83L34.09 185.53C34.7942 186.212 35.6276 186.746 36.5411 187.102C37.4547 187.457 38.4301 187.627 39.41 187.6H53.71C54.6572 187.655 55.6051 187.505 56.4888 187.16C57.3726 186.815 58.1712 186.283 58.83 185.6C59.5933 184.838 60.2012 183.934 60.62 182.94L63.42 175.94L73.19 185.71C73.875 186.348 74.6811 186.843 75.5605 187.164C76.44 187.485 77.3749 187.627 78.31 187.58H92.61C93.5908 187.607 94.5671 187.437 95.481 187.08C96.3948 186.722 97.2276 186.185 97.93 185.5C99.1759 184.356 99.9765 182.808 100.19 181.13L102.72 163.64C102.95 164.01 103.18 164.37 103.43 164.72C104.326 165.984 105.33 167.169 106.43 168.26L117.03 178.87C119.871 181.674 123.243 183.88 126.95 185.36C132.792 187.603 139.013 188.696 145.27 188.58C151.498 188.703 157.691 187.61 163.5 185.36C168.599 183.388 173.022 179.989 176.24 175.57L186.57 185.91C187.093 186.44 187.715 186.86 188.402 187.147C189.089 187.434 189.826 187.581 190.57 187.58H210.17C211.679 187.57 213.122 186.966 214.189 185.899C215.256 184.832 215.86 183.389 215.87 181.88V176.83L224.75 185.71C225.438 186.357 226.25 186.858 227.137 187.182C228.024 187.507 228.967 187.649 229.91 187.6H250.41C251.082 187.609 251.749 187.483 252.371 187.229C252.993 186.974 253.557 186.597 254.03 186.12C254.949 185.236 255.509 184.042 255.6 182.77L258.76 185.93C259.283 186.46 259.905 186.88 260.592 187.167C261.279 187.454 262.016 187.601 262.76 187.6H313.16C313.905 187.601 314.643 187.453 315.33 187.165C316.017 186.876 316.639 186.453 317.16 185.92C317.901 185.199 318.424 184.284 318.67 183.28L321.32 185.93C321.843 186.46 322.465 186.88 323.152 187.167C323.839 187.454 324.576 187.601 325.32 187.6H354.62C360.744 187.711 366.833 186.652 372.56 184.48C377.762 182.43 382.243 178.888 385.44 174.3C388.54 169.72 390.26 163.94 390.55 157.16C390.69 154.4 390.76 151.89 390.76 149.71C390.76 147.53 390.69 144.87 390.55 141.98ZM246.45 157.08V164.16L243.91 159.4C244.808 158.685 245.656 157.91 246.45 157.08Z" fill="#1D1332"/>
<path d="M40.04 97.02L40.18 97.16C41.2532 98.0991 42.6339 98.6116 44.06 98.6H63.66C65.1685 98.5895 66.6122 97.9856 67.6789 96.9189C68.7456 95.8522 69.3495 94.4085 69.36 92.9V84.42C69.6497 85.1331 70.0819 85.7796 70.63 86.32L81.24 96.92C81.7601 97.4538 82.3822 97.8777 83.0694 98.1663C83.7565 98.4549 84.4947 98.6023 85.24 98.6H104.91C106.418 98.5895 107.862 97.9856 108.929 96.9189C109.996 95.8522 110.6 94.4085 110.61 92.9V90.2L117.33 96.92C117.851 97.4529 118.473 97.8761 119.16 98.1647C119.847 98.4532 120.585 98.6012 121.33 98.6H173.43C174.94 98.5947 176.387 97.9925 177.455 96.9247C178.522 95.8569 179.125 94.4101 179.13 92.9V92.05L184.01 96.92C184.531 97.4529 185.153 97.8761 185.84 98.1647C186.527 98.4532 187.265 98.6012 188.01 98.6H238.41C239.155 98.6029 239.894 98.4557 240.581 98.1671C241.268 97.8784 241.89 97.4543 242.41 96.92C243.14 96.2001 243.659 95.294 243.91 94.3L246.55 96.94C247.071 97.4729 247.693 97.8961 248.38 98.1846C249.067 98.4732 249.805 98.6212 250.55 98.62H300.95C302.458 98.6095 303.902 98.0056 304.969 96.9389C306.036 95.8722 306.64 94.4285 306.65 92.92V83.43L313.12 89.9L313.24 90.02C316.057 92.7689 319.386 94.9367 323.04 96.4C328.883 98.6421 335.103 99.7354 341.36 99.62C347.588 99.7443 353.781 98.6505 359.59 96.4C364.818 94.3862 369.333 90.8724 372.57 86.3C375.881 81.3953 377.701 75.6367 377.81 69.72C377.95 66.94 378.02 63.96 378.02 60.87C378.02 57.78 377.95 54.75 377.81 51.87C377.758 45.9869 375.978 40.249 372.69 35.37C371.715 33.9596 370.614 32.6409 369.4 31.43L358.8 20.82C356.032 18.0976 352.775 15.9227 349.2 14.41C337.369 9.82371 324.251 9.82371 312.42 14.41C307.227 16.5644 302.758 20.159 299.54 24.77C296.295 29.6812 294.516 35.4147 294.41 41.3C294.34 44.17 294.31 47.19 294.31 50.3C294.31 53.41 294.31 56.3 294.41 59.13C294.478 60.6375 294.632 62.1399 294.87 63.63L294.42 63.18C293.899 62.6475 293.277 62.2246 292.59 61.9361C291.903 61.6476 291.165 61.4993 290.42 61.5H276.3V28.3C276.301 27.5549 276.153 26.817 275.865 26.13C275.576 25.443 275.153 24.8208 274.62 24.3L264.02 13.7C263.499 13.1676 262.877 12.7446 262.19 12.4561C261.503 12.1676 260.765 12.0193 260.02 12.02H240.02C238.511 12.0304 237.068 12.6344 236.001 13.701C234.934 14.7677 234.33 16.2115 234.32 17.72V65.72L231.85 63.25C231.329 62.7171 230.707 62.2938 230.02 62.0053C229.333 61.7168 228.595 61.5688 227.85 61.57H213.75V28.3C213.751 27.5549 213.603 26.817 213.315 26.13C213.026 25.443 212.603 24.8208 212.07 24.3L201.47 13.7C200.949 13.1671 200.327 12.7439 199.64 12.4553C198.953 12.1668 198.215 12.0187 197.47 12.02H177.47C175.962 12.0304 174.518 12.6344 173.451 13.701C172.384 14.7677 171.78 16.2115 171.77 17.72V19.37L166.09 13.7C165.569 13.1671 164.947 12.7439 164.26 12.4553C163.573 12.1668 162.835 12.0187 162.09 12.02H110.79C109.282 12.0304 107.838 12.6344 106.771 13.701C105.704 14.7677 105.1 16.2115 105.09 17.72V20.42L98.36 13.7C97.8392 13.1671 97.217 12.7439 96.53 12.4553C95.843 12.1668 95.1051 12.0187 94.36 12.02H74.76C73.2515 12.0304 71.8078 12.6344 70.7411 13.701C69.6744 14.7677 69.0705 16.2115 69.06 17.72V26.2C68.7703 25.4869 68.3381 24.8404 67.79 24.3L57.18 13.7C56.6592 13.1671 56.037 12.7439 55.35 12.4553C54.663 12.1668 53.9251 12.0187 53.18 12.02H33.58C32.0715 12.0304 30.6278 12.6344 29.5611 13.701C28.4944 14.7677 27.8905 16.2115 27.88 17.72V82.3C27.87 83.0642 28.0136 83.8226 28.3022 84.5303C28.5908 85.238 29.0185 85.8806 29.56 86.42L40.04 97.02Z" fill="#1D1332"/>
<path fill-rule="evenodd" clip-rule="evenodd" d="M330.81 87C324.937 87.1184 319.096 86.0997 313.61 84C308.962 82.1708 304.937 79.0474 302.01 75C299.087 70.5365 297.492 65.3347 297.41 60C297.337 57.26 297.303 54.36 297.31 51.3C297.317 48.24 297.35 45.2733 297.41 42.4C297.501 37.0979 299.097 31.9309 302.01 27.5C304.906 23.3531 308.933 20.1252 313.61 18.2C324.68 13.9338 336.94 13.9338 348.01 18.2C352.688 20.1252 356.714 23.3531 359.61 27.5C362.586 31.9009 364.187 37.0871 364.21 42.4C364.337 45.26 364.403 48.2267 364.41 51.3C364.417 54.3733 364.35 57.2733 364.21 60C364.129 65.3496 362.496 70.5605 359.51 75C356.612 79.0752 352.577 82.2057 347.91 84C342.46 86.1052 336.651 87.1243 330.81 87ZM330.81 67.5C332.758 67.5897 334.663 66.9069 336.11 65.6C337.44 64.26 338.11 62.2 338.21 59.4C338.31 56.6 338.41 53.7 338.41 50.9C338.41 48.1 338.34 45.33 338.21 42.6C338.21 41.0015 337.833 39.4254 337.11 38C336.59 36.8787 335.71 35.9635 334.61 35.4C333.443 34.7754 332.133 34.4653 330.81 34.5C329.488 34.4815 328.183 34.7907 327.01 35.4C325.896 35.978 324.988 36.8861 324.41 38C323.755 39.4455 323.415 41.0132 323.41 42.6C323.337 45.3333 323.303 48.1 323.31 50.9C323.317 53.7 323.35 56.5333 323.41 59.4C323.54 62.2 324.24 64.26 325.51 65.6C326.957 66.9069 328.862 67.5897 330.81 67.5Z" fill="white"/>
<path d="M31.55 85.3C32.0748 85.7605 32.7518 86.0099 33.45 86H53.05C53.7637 85.9922 54.4459 85.7052 54.9506 85.2006C55.4552 84.6959 55.7422 84.0136 55.75 83.3V61.7H71.91V83.3C71.9178 84.0136 72.2048 84.6959 72.7094 85.2006C73.2141 85.7052 73.8963 85.9922 74.61 86H94.21C94.9237 85.9922 95.6059 85.7052 96.1106 85.2006C96.6152 84.6959 96.9022 84.0136 96.91 83.3V18.7C96.9022 17.9863 96.6152 17.3041 96.1106 16.7994C95.6059 16.2948 94.9237 16.0078 94.21 16H74.61C73.8963 16.0078 73.2141 16.2948 72.7094 16.7994C72.2048 17.3041 71.9178 17.9863 71.91 18.7V39.7H55.71V18.7C55.7022 17.9863 55.4152 17.3041 54.9106 16.7994C54.4059 16.2948 53.7237 16.0078 53.01 16H33.41C32.6963 16.0078 32.0141 16.2948 31.5094 16.7994C31.0048 17.3041 30.7178 17.9863 30.71 18.7V83.3C30.7065 83.673 30.7792 84.0428 30.9236 84.3867C31.0681 84.7306 31.2812 85.0414 31.55 85.3Z" fill="white"/>
<path d="M108.8 85.2C109.045 85.4563 109.34 85.6596 109.667 85.7972C109.994 85.9348 110.345 86.0038 110.7 86H162.8C163.514 85.9922 164.196 85.7052 164.701 85.2006C165.205 84.6959 165.492 84.0136 165.5 83.3V69.2C165.492 68.4863 165.205 67.8041 164.701 67.2994C164.196 66.7948 163.514 66.5078 162.8 66.5H132V60.2H159.8C160.514 60.1922 161.196 59.9052 161.701 59.4006C162.205 58.8959 162.492 58.2137 162.5 57.5V44.5C162.492 43.7863 162.205 43.1041 161.701 42.5994C161.196 42.0948 160.514 41.8078 159.8 41.8H132V35.5H162C162.714 35.4922 163.396 35.2052 163.901 34.7006C164.405 34.1959 164.692 33.5137 164.7 32.8V18.7C164.692 17.9863 164.405 17.3041 163.901 16.7994C163.396 16.2948 162.714 16.0078 162 16H110.7C109.986 16.0078 109.304 16.2948 108.799 16.7994C108.295 17.3041 108.008 17.9863 108 18.7V83.3C107.996 83.6546 108.065 84.0062 108.203 84.333C108.34 84.6598 108.544 84.9549 108.8 85.2Z" fill="white"/>
<path d="M177.4 86C176.686 85.9922 176.004 85.7052 175.499 85.2006C174.995 84.6959 174.708 84.0136 174.7 83.3V18.7C174.708 17.9863 174.995 17.3041 175.499 16.7994C176.004 16.2948 176.686 16.0078 177.4 16H197.4C198.114 16.0078 198.796 16.2948 199.301 16.7994C199.805 17.3041 200.092 17.9863 200.1 18.7V65.5H227.8C228.514 65.5078 229.196 65.7948 229.701 66.2994C230.205 66.8041 230.492 67.4863 230.5 68.2V83.3C230.492 84.0136 230.205 84.6959 229.701 85.2006C229.196 85.7052 228.514 85.9922 227.8 86H177.4Z" fill="white"/>
<path d="M238.09 85.2C238.336 85.4549 238.631 85.6572 238.958 85.7947C239.285 85.9322 239.636 86.0021 239.99 86H290.39C291.104 85.9922 291.786 85.7052 292.291 85.2006C292.795 84.6959 293.082 84.0136 293.09 83.3V68.2C293.082 67.4863 292.795 66.8041 292.291 66.2994C291.786 65.7948 291.104 65.5078 290.39 65.5H262.69V18.7C262.682 17.9863 262.395 17.3041 261.891 16.7994C261.386 16.2948 260.704 16.0078 259.99 16H239.99C239.276 16.0078 238.594 16.2948 238.089 16.7994C237.585 17.3041 237.298 17.9863 237.29 18.7V83.3C237.288 83.6543 237.358 84.0054 237.495 84.332C237.633 84.6585 237.835 84.9539 238.09 85.2Z" fill="white"/>
<path d="M25.6 172.8C26.0241 173.207 26.5265 173.523 27.0766 173.729C27.6267 173.935 28.2131 174.028 28.8 174H43.1C43.6266 174.048 44.1574 173.983 44.6572 173.811C45.1571 173.639 45.6148 173.362 46 173C46.5015 172.512 46.9083 171.936 47.2 171.3L55.4 150.8L63.6 171.3C63.8765 171.92 64.2476 172.494 64.7 173C65.1093 173.357 65.5851 173.628 66.1 173.8C66.6149 173.972 67.1587 174.04 67.7 174H82C82.587 174.029 83.1737 173.937 83.724 173.731C84.2743 173.524 84.7766 173.208 85.2 172.8C85.966 172.131 86.4634 171.208 86.6 170.2L95.8 106.5V106.2C95.7505 105.633 95.5027 105.102 95.1004 104.7C94.6981 104.297 94.1668 104.05 93.6 104H75C72.8 104 71.6 104.9 71.4 106.7L68 134.8L63.91 122.4C63.6973 121.76 63.3942 121.154 63.01 120.6C62.728 120.212 62.348 119.905 61.9087 119.712C61.4695 119.519 60.9868 119.446 60.51 119.5H50.31C49.8333 119.447 49.351 119.52 48.9119 119.713C48.4729 119.907 48.0927 120.212 47.81 120.6C47.4337 121.159 47.1312 121.764 46.91 122.4L42.81 134.9L39.41 106.7C39.21 104.9 38.01 104 35.81 104H17.21C16.9097 104.001 16.6128 104.064 16.3376 104.184C16.0624 104.305 15.8148 104.48 15.61 104.7C15.4112 104.895 15.2551 105.128 15.1518 105.387C15.0485 105.645 15.0002 105.922 15.01 106.2V106.5L24.21 170.2C24.4084 171.184 24.8918 172.088 25.6 172.8Z" fill="white"/>
<path fill-rule="evenodd" clip-rule="evenodd" d="M134.67 175C128.797 175.119 122.956 174.1 117.47 172C112.821 170.173 108.795 167.049 105.87 163C102.943 158.538 101.348 153.335 101.27 148C101.197 145.26 101.163 142.36 101.17 139.3C101.177 136.24 101.21 133.273 101.27 130.4C101.354 125.097 102.95 119.928 105.87 115.5C108.764 111.351 112.791 108.123 117.47 106.2C128.54 101.934 140.8 101.934 151.87 106.2C156.547 108.125 160.574 111.353 163.47 115.5C166.442 119.903 168.043 125.088 168.07 130.4C168.197 133.26 168.263 136.227 168.27 139.3C168.277 142.373 168.21 145.273 168.07 148C167.984 153.349 166.352 158.558 163.37 163C160.472 167.075 156.437 170.206 151.77 172C146.32 174.105 140.511 175.124 134.67 175ZM134.67 155.5C136.618 155.588 138.522 154.905 139.97 153.6C141.3 152.26 141.97 150.2 142.07 147.4C142.17 144.6 142.27 141.7 142.27 138.9C142.27 136.1 142.2 133.33 142.07 130.6C142.065 129.002 141.689 127.427 140.97 126C140.447 124.881 139.568 123.967 138.47 123.4C137.302 122.777 135.993 122.467 134.67 122.5C133.348 122.481 132.043 122.791 130.87 123.4C129.753 123.973 128.843 124.883 128.27 126C127.611 127.444 127.27 129.013 127.27 130.6C127.197 133.333 127.163 136.1 127.17 138.9C127.177 141.7 127.21 144.533 127.27 147.4C127.4 150.2 128.1 152.26 129.37 153.6C130.817 154.907 132.722 155.59 134.67 155.5Z" fill="white"/>
<path fill-rule="evenodd" clip-rule="evenodd" d="M178.08 173.2C178.326 173.455 178.621 173.657 178.948 173.795C179.275 173.932 179.626 174.002 179.98 174H199.58C200.294 173.992 200.976 173.705 201.481 173.201C201.985 172.696 202.272 172.014 202.28 171.3V152.2H206.38L214.98 171.3C215.313 171.937 215.753 172.511 216.28 173C216.689 173.357 217.165 173.628 217.68 173.8C218.195 173.972 218.739 174.04 219.28 174H239.78C240.058 174.01 240.335 173.961 240.593 173.858C240.852 173.755 241.085 173.599 241.28 173.4C241.5 173.195 241.675 172.948 241.796 172.672C241.916 172.397 241.979 172.1 241.98 171.8C241.967 171.415 241.864 171.038 241.68 170.7L229.38 147.9C232.52 145.893 235.155 143.19 237.08 140C239.2 136.472 240.275 132.415 240.18 128.3C240.18 120.76 237.48 114.827 232.08 110.5C226.68 106.173 219.18 104.007 209.58 104H179.98C179.266 104.008 178.584 104.295 178.079 104.799C177.575 105.304 177.288 105.986 177.28 106.7V171.3C177.278 171.654 177.348 172.005 177.485 172.332C177.623 172.659 177.825 172.954 178.08 173.2ZM212.98 131.7C212.582 132.212 212.062 132.617 211.469 132.878C210.876 133.14 210.227 133.251 209.58 133.2H202.28V122.6H209.58C210.274 122.534 210.973 122.669 211.593 122.988C212.214 123.307 212.73 123.797 213.08 124.4C213.807 125.496 214.19 126.785 214.18 128.1C214.19 129.4 213.768 130.666 212.98 131.7Z" fill="white"/>
<path d="M252.15 174C251.436 173.992 250.754 173.705 250.249 173.201C249.745 172.696 249.458 172.014 249.45 171.3V106.7C249.458 105.986 249.745 105.304 250.249 104.799C250.754 104.295 251.436 104.008 252.15 104H272.15C272.864 104.008 273.546 104.295 274.051 104.799C274.555 105.304 274.842 105.986 274.85 106.7V153.5H302.55C303.264 153.508 303.946 153.795 304.451 154.299C304.955 154.804 305.242 155.486 305.25 156.2V171.3C305.242 172.014 304.955 172.696 304.451 173.201C303.946 173.705 303.264 173.992 302.55 174H252.15Z" fill="white"/>
<path fill-rule="evenodd" clip-rule="evenodd" d="M312.85 173.2C313.096 173.455 313.391 173.658 313.718 173.796C314.044 173.933 314.396 174.003 314.75 174H344.05C349.784 174.117 355.487 173.132 360.85 171.1C365.499 169.271 369.501 166.104 372.35 162C375.15 157.86 376.683 152.66 376.95 146.4C377.077 143.66 377.143 141.227 377.15 139.1C377.15 136.9 377.08 134.36 376.95 131.5C376.75 125.5 375.15 120.467 372.15 116.4C369.162 112.283 365.071 109.094 360.35 107.2C355.03 104.987 349.311 103.898 343.55 104H314.75C314.036 104.008 313.354 104.295 312.849 104.799C312.345 105.304 312.058 105.986 312.05 106.7V171.3C312.048 171.654 312.118 172.005 312.255 172.332C312.393 172.659 312.595 172.954 312.85 173.2ZM347.45 153.7C346.225 154.252 344.893 154.525 343.55 154.5H337.05V123.5H343.05C345.146 123.438 347.197 124.11 348.85 125.4C350.52 126.66 351.42 128.7 351.55 131.5C351.68 133.3 351.75 135 351.75 136.6C351.75 138.2 351.82 139.66 351.75 141.2C351.68 142.74 351.68 144.46 351.55 146.4C351.548 148.01 351.135 149.594 350.35 151C349.664 152.161 348.657 153.098 347.45 153.7Z" fill="white"/>
</svg>
