<svg width="360" height="370" viewBox="0 0 360 370" fill="none" xmlns="http://www.w3.org/2000/svg">
<path d="M69.5959 89.5772C66.0542 90.4773 63.5464 93.6273 63.463 97.2806L60.4739 228.271C60.4275 230.306 61.1454 232.285 62.486 233.817L142.87 325.676C145.057 328.177 148.545 329.096 151.681 328L189.446 314.799C192.243 313.821 194.288 311.401 194.784 308.48L197.619 291.81C197.849 290.454 198.813 289.338 200.121 288.912L251.579 272.152C252.91 271.718 254.106 270.949 255.053 269.918L319.833 199.388C322.215 196.794 322.659 192.962 320.932 189.892L245.025 54.9323C243.252 51.7796 239.611 50.1753 236.088 50.9942L149.79 71.053C147.216 71.6512 145.094 73.461 144.096 75.9072L136.549 94.4092C135.978 95.8092 134.205 96.2412 133.054 95.2606L116.54 81.1915C114.53 79.4794 111.815 78.8483 109.256 79.4985L69.5959 89.5772Z" fill="#1E0333" stroke="#1E0333" stroke-width="2.95993" stroke-linejoin="round"/>
<path d="M175.195 118.232L152.309 75.7694L196.107 65.3041L217.853 105.121L175.195 118.232Z" fill="white" stroke="#1E0333" stroke-width="2.61818" stroke-linejoin="round"/>
<path d="M225.887 102.624L204.157 63.7593L240.423 54.8292L260.855 92.4414L225.887 102.624Z" fill="white" stroke="#1E0333" stroke-width="2.61818" stroke-linejoin="round"/>
<path d="M222.002 112.013L246.698 156.658L213.087 167.857L213.814 159.247C213.85 158.827 213.681 158.416 213.36 158.142L182.956 132.139L179.043 124.992L222.002 112.013Z" fill="white" stroke="#1E0333" stroke-width="2.61818" stroke-linejoin="round"/>
<path d="M254.288 154.547L229.661 109.718L264.587 99.1469L289.494 142.763L254.288 154.547Z" fill="white" stroke="#1E0333" stroke-width="2.61818" stroke-linejoin="round"/>
<path d="M282.546 205.72L258.127 161.114L293.133 149.531L317.78 193.103L282.546 205.72Z" fill="white" stroke="#1E0333" stroke-width="2.61818" stroke-linejoin="round"/>
<path d="M211.518 181.644L211.928 176.513L250.309 163.644L275.419 208.031L233.422 222.663L211.518 181.644Z" fill="white" stroke="#1E0333" stroke-width="2.61818" stroke-linejoin="round"/>
<path d="M160.29 172.321L130.952 145.716L171.781 133.483L202.117 158.818L160.29 172.321Z" fill="white" stroke="#1E0333" stroke-width="2.61818" stroke-linejoin="round"/>
<path d="M124.379 139.794L99.7132 117.581L138.699 105.814L164.619 127.331L124.379 139.794Z" fill="white" stroke="#1E0333" stroke-width="2.61818" stroke-linejoin="round"/>
<path d="M93.1048 111.358L72.5706 93.1793L112.19 83.3663L131.131 99.5923L93.1048 111.358Z" fill="white" stroke="#1E0333" stroke-width="2.61818" stroke-linejoin="round"/>
<path d="M163.041 179.349L205.009 166.162L200.914 210.894L159.646 223.194L163.041 179.349Z" fill="#FF6569" stroke="#1E0333" stroke-width="2.61818" stroke-linejoin="round"/>
<path d="M155.181 275.908L158.739 231.689L199.618 219.328L195.765 262.198L155.181 275.908Z" fill="#FF6569" stroke="#1E0333" stroke-width="2.61818" stroke-linejoin="round"/>
<path d="M150.964 323.512L154.465 284.225L195.05 271.265L191.168 310.368L150.964 323.512Z" fill="#FF6569" stroke="#1E0333" stroke-width="2.61818" stroke-linejoin="round"/>
<path d="M268.121 218.883L252.663 237.037L218.665 248.975L234.377 230.264L268.121 218.883Z" fill="#FF6569" stroke="#1E0333" stroke-width="2.61818" stroke-linejoin="round"/>
<path d="M310.311 203.851L292.258 222.953L266.751 232.312L282.736 213.821L310.311 203.851Z" fill="#FF6569" stroke="#1E0333" stroke-width="2.61818" stroke-linejoin="round"/>
<path d="M202.601 271.452L202.737 266.837L208.495 260.09L241.322 248.684L230.849 261.428L202.601 271.452Z" fill="#FF6569" stroke="#1E0333" stroke-width="2.61818" stroke-linejoin="round"/>
<path d="M269.789 247.694L244.754 256.628L255.727 243.25L282.044 234.342L269.789 247.694Z" fill="#FF6569" stroke="#1E0333" stroke-width="2.61818" stroke-linejoin="round"/>
<path d="M200.928 284.842L201.254 279.639L219.842 273.09L214.674 280.22L200.928 284.842Z" fill="#FF6569" stroke="#1E0333" stroke-width="2.61818" stroke-linejoin="round"/>
<path d="M258.642 259.788C257.875 260.65 257.035 261.592 256.195 262.533C254.776 264.123 253.358 265.71 252.295 266.898C251.764 267.493 251.321 267.988 251.011 268.334L250.758 268.616L227.284 276.288L234.209 268.141L258.642 259.788Z" fill="#FF6569" stroke="#1E0333" stroke-width="2.61818" stroke-linejoin="round"/>
<path d="M66.4081 142.141L67.8256 99.544L87.5808 117.809L85.5171 160.06L66.4081 142.141Z" fill="#2B9FFF" stroke="#1E0333" stroke-width="2.61818" stroke-linejoin="round"/>
<path d="M92.8225 166.49L94.7258 123.755L118.583 144.878L116.416 188.128L92.8225 166.49Z" fill="#2B9FFF" stroke="#1E0333" stroke-width="2.61818" stroke-linejoin="round"/>
<path d="M123.876 194.856L126.625 152.41L154.667 177.729L151.196 220.216L123.876 194.856Z" fill="#2B9FFF" stroke="#1E0333" stroke-width="2.61818" stroke-linejoin="round"/>
<path d="M65.3888 189.086L66.8089 153.162L84.8326 170.245L83.2405 207.45L65.3888 189.086Z" fill="#2B9FFF" stroke="#1E0333" stroke-width="2.61818" stroke-linejoin="round"/>
<path d="M91.039 216.076L92.6982 177.327L116.167 198.555L113.591 238.951L91.039 216.076Z" fill="#2B9FFF" stroke="#1E0333" stroke-width="2.61818" stroke-linejoin="round"/>
<path d="M121.121 245.495L123.34 205.594L150.805 230.263L147.133 272.344L121.121 245.495Z" fill="#2B9FFF" stroke="#1E0333" stroke-width="2.61818" stroke-linejoin="round"/>
<path d="M118.429 290.046L120.766 256.598L146.312 282.373L143.005 319.133L118.429 290.046Z" fill="#2B9FFF" stroke="#1E0333" stroke-width="2.61818" stroke-linejoin="round"/>
<path d="M89.0105 256.849L90.6073 226.718L112.976 249.12L111.118 282.479L89.0105 256.849Z" fill="#2B9FFF" stroke="#1E0333" stroke-width="2.61818" stroke-linejoin="round"/>
<path d="M64.2532 229.357L65.268 200.427L82.8198 219.053L81.355 248.485L64.2532 229.357Z" fill="#2B9FFF" stroke="#1E0333" stroke-width="2.61818" stroke-linejoin="round"/>
</svg>
